<?xml version="1.0" encoding="utf-8"?>
<svg
	version="1.1"
	xmlns="http://www.w3.org/2000/svg"
	xmlns:xlink="http://www.w3.org/1999/xlink"
	x="0%" y="0%"
	width="100%" height="100%"
	viewBox="0 0 8000.0 8000.0"
	enable-background="new 0 0 8000.0 8000.0"
	xml:space="preserve">
	<path
		fill="#FFFFFF"
		stroke="#000000"
		fill-opacity="0.000"
		stroke-opacity="1.000"
		fill-rule="nonzero"
		stroke-width="557.90735"
		stroke-linejoin="miter"
		stroke-linecap="square"
		d="M2406.07,510.20L5563.45,510.20A1871.37 1871.37 0 0 1 7434.82,2381.57L7434.82,5454.98A1871.37 1871.37 0 0 1 5563.45,7326.36L2406.07,7326.36A1871.37 1871.37 0 0 1 534.70,5454.98L534.70,2381.57A1871.37 1871.37 0 0 1 2406.07,510.20z"/>
	<path
		fill="#FFFFFF"
		stroke="#000000"
		fill-opacity="0.000"
		stroke-opacity="1.000"
		fill-rule="nonzero"
		stroke-width="557.90735"
		stroke-linejoin="miter"
		stroke-linecap="square"
		d="M3984.75,2453.56C4818.26,2453.56,5493.95,3109.34,5493.95,3918.28C5493.95,4727.23,4818.26,5383.01,3984.75,5383.01C3151.25,5383.01,2475.56,4727.23,2475.56,3918.28C2475.56,3109.34,3151.25,2453.56,3984.75,2453.56z"/>
	<path
		fill="#000000"
		stroke="#000000"
		fill-opacity="1.000"
		stroke-opacity="1.000"
		fill-rule="nonzero"
		stroke-width="137.49918"
		stroke-linejoin="miter"
		stroke-linecap="square"
		d="M5837.89,1777.29C6035.39,1777.29,6195.49,1937.26,6195.49,2134.60C6195.49,2331.94,6035.39,2491.92,5837.89,2491.92C5640.40,2491.92,5480.30,2331.94,5480.30,2134.60C5480.30,1937.26,5640.40,1777.29,5837.89,1777.29z"/>
</svg>